<?xml version="1.0" standalone="no"?>
<!DOCTYPE svg PUBLIC "-//W3C//DTD SVG 20010904//EN"
 "http://www.w3.org/TR/2001/REC-SVG-20010904/DTD/svg10.dtd">
<svg version="1.0" xmlns="http://www.w3.org/2000/svg"
 width="647.000000pt" height="400.000000pt" viewBox="0 0 647.000000 400.000000"
 preserveAspectRatio="xMidYMid meet">

<g transform="translate(0.000000,400.000000) scale(0.100000,-0.100000)"
fill="#000000" stroke="none">
<path d="M0 2000 l0 -2000 3235 0 3235 0 0 2000 0 2000 -3235 0 -3235 0 0
-2000z m3005 1660 c221 -57 408 -192 533 -383 85 -131 142 -319 142 -475 0
-89 -32 -252 -66 -336 -79 -195 -241 -369 -431 -465 -163 -81 -379 -111 -558
-76 -402 78 -699 418 -722 825 -16 299 116 580 363 768 92 70 267 141 399 162
86 13 247 4 340 -20z m759 -269 c116 -51 282 -191 357 -302 110 -163 155 -327
146 -542 -5 -149 -23 -220 -89 -352 -47 -95 -71 -128 -157 -219 -223 -233
-570 -324 -878 -229 -29 9 -53 19 -53 23 0 3 24 14 54 24 46 16 62 17 118 7
352 -61 718 136 864 466 83 187 87 420 12 613 -70 177 -202 327 -366 415 -38
21 -63 44 -91 86 l-38 57 36 -13 c20 -7 58 -23 85 -34z m178 -424 c86 -125
124 -262 115 -411 -7 -118 -28 -194 -80 -285 -112 -198 -294 -320 -510 -340
l-67 -7 32 25 c207 159 350 390 403 653 22 104 16 364 -9 443 -9 28 -16 54
-16 60 0 17 91 -78 132 -138z m-560 -1659 l3 -223 38 -18 c30 -15 37 -24 37
-48 0 -29 0 -29 -59 -29 -49 0 -65 4 -88 24 l-28 24 -3 246 -3 246 50 0 51 0
2 -222z m-1029 177 c11 -5 17 -18 17 -41 l0 -35 -111 3 c-104 3 -112 2 -129
-19 -23 -28 -34 -123 -25 -205 11 -95 53 -125 134 -97 29 10 31 14 31 60 l0
49 -36 0 c-34 0 -35 1 -32 32 4 38 22 45 111 47 l57 1 0 -145 0 -145 -34 0
c-18 0 -39 7 -46 15 -11 13 -15 13 -41 0 -41 -22 -127 -19 -166 5 -59 36 -68
67 -68 235 0 168 9 199 68 236 28 18 44 20 142 16 61 -2 118 -8 128 -12z m760
-126 c66 -18 77 -49 77 -221 l0 -148 -40 0 c-27 0 -42 5 -49 17 -9 17 -11 17
-45 0 -20 -9 -56 -17 -80 -17 -88 0 -130 92 -84 186 15 32 51 44 128 44 67 0
70 1 70 24 0 41 -21 49 -115 41 l-85 -7 0 31 c0 36 7 41 74 51 76 11 107 11
149 -1z m-388 -15 c48 -23 67 -69 67 -168 1 -103 -18 -151 -66 -171 -45 -19
-146 -19 -191 -1 -57 24 -70 56 -70 171 0 109 12 142 64 170 36 20 154 19 196
-1z m1087 -12 c19 -19 23 -33 23 -89 0 -87 -18 -102 -134 -110 -44 -3 -81 -9
-81 -12 0 -4 7 -17 16 -29 14 -20 23 -22 105 -22 l89 0 0 -34 c0 -31 -3 -34
-37 -40 -70 -11 -183 -7 -213 9 -46 24 -70 135 -51 239 18 99 46 117 173 113
76 -2 90 -5 110 -25z m198 21 c0 -5 4 -14 9 -21 6 -11 15 -9 42 7 19 12 51 21
72 21 l37 0 0 -47 0 -48 -49 -1 c-89 -3 -91 -6 -91 -149 l0 -125 -50 0 -50 0
0 185 0 185 40 0 c22 0 40 -3 40 -7z m-693 -554 c15 -15 -3 -53 -41 -88 -26
-24 -36 -74 -17 -85 5 -3 26 6 47 21 22 14 47 27 56 28 10 1 28 13 42 28 14
15 32 27 40 27 18 0 59 -77 49 -93 -4 -6 6 -2 21 11 44 34 73 27 44 -10 -44
-56 -133 -84 -173 -54 -16 12 -17 16 -6 30 7 9 22 16 32 16 11 0 19 4 19 8 0
19 -15 21 -38 6 -13 -8 -26 -13 -29 -10 -3 3 -21 -8 -40 -24 -61 -54 -109 -51
-128 7 l-10 31 -39 -34 c-43 -37 -72 -43 -91 -17 -11 15 -15 15 -47 -5 -45
-28 -73 -28 -92 0 -20 28 -71 26 -129 -4 -46 -23 -86 -20 -101 7 -6 11 -12 22
-13 24 -4 6 -86 -61 -125 -102 -25 -27 -43 -38 -59 -35 -38 5 -33 27 15 70 49
44 62 71 21 44 -36 -24 -80 -21 -92 7 -6 12 -7 31 -2 43 14 38 146 87 156 57
2 -6 -12 -16 -31 -23 -34 -11 -64 -36 -54 -45 3 -3 22 6 43 20 47 33 71 29 67
-9 l-3 -28 37 30 c21 17 41 29 45 26 4 -2 26 5 48 16 54 29 115 24 119 -8 3
-19 8 -23 25 -17 12 3 31 8 42 10 11 3 46 14 78 25 60 21 87 19 66 -6 -6 -8
-17 -14 -25 -14 -7 0 -26 -11 -41 -25 l-28 -26 42 21 c51 24 79 26 91 4 8 -14
13 -12 46 10 21 14 50 45 65 68 24 38 64 76 82 77 3 1 10 -4 16 -10z m1879 -3
c7 -18 -10 -51 -48 -94 -51 -59 -17 -95 45 -48 19 14 39 26 46 26 6 0 39 9 72
20 63 21 89 19 68 -6 -6 -8 -17 -14 -25 -14 -7 0 -26 -11 -41 -25 l-28 -26 42
21 c51 24 79 26 91 3 9 -15 12 -14 37 5 15 12 33 22 40 22 7 0 18 7 25 15 14
17 46 20 55 5 3 -5 1 -19 -6 -31 -12 -24 -8 -22 44 14 34 23 57 16 57 -18 0
-30 9 -31 43 -5 14 11 33 20 42 20 10 0 28 11 41 25 13 14 28 25 33 25 10 0
34 -38 47 -72 8 -22 18 -23 34 -3 13 16 50 21 50 6 0 -13 -68 -71 -97 -82 -34
-13 -77 -11 -91 3 -20 20 -13 38 18 45 31 6 38 17 19 28 -5 4 -18 0 -28 -9
-10 -9 -23 -16 -29 -16 -6 0 -32 -11 -57 -24 -46 -25 -75 -25 -75 -1 0 26 -16
24 -63 -7 -38 -25 -50 -28 -62 -18 -10 8 -13 21 -8 38 l6 26 -39 -32 c-42 -35
-71 -40 -88 -16 -11 14 -16 14 -49 -6 -43 -25 -77 -23 -92 6 l-10 21 -35 -23
c-122 -84 -165 76 -48 181 41 38 56 43 64 21z m-3846 -3 c0 -3 -16 -30 -37
-60 -36 -53 -39 -81 -5 -50 28 26 48 20 63 -15 17 -45 16 -44 43 -19 13 12 30
23 38 25 8 1 27 12 42 24 16 12 35 22 43 22 24 0 26 -30 4 -60 -27 -37 -11
-48 32 -21 17 11 43 26 57 32 14 6 43 20 66 30 103 47 143 -5 49 -63 -26 -15
-27 -18 -9 -18 12 0 40 14 62 30 23 17 46 30 50 30 5 0 17 9 27 20 20 22 33
24 55 10 12 -8 12 -11 -3 -28 -16 -18 -24 -62 -10 -62 11 0 43 32 43 43 0 18
32 47 52 47 14 0 18 -8 18 -32 0 -29 1 -30 18 -15 10 10 25 17 32 17 8 0 33 9
57 21 52 25 87 22 91 -8 2 -16 -7 -29 -35 -47 -53 -36 -17 -33 40 4 50 32 67
37 67 20 0 -17 -48 -57 -94 -80 -57 -27 -109 -26 -133 3 -23 28 -75 28 -123
-1 -19 -12 -43 -22 -52 -22 -22 0 -48 27 -48 50 0 17 -5 16 -49 -12 -29 -17
-69 -33 -95 -35 -39 -5 -48 -2 -67 19 l-22 25 -36 -24 c-49 -33 -91 -28 -112
14 l-16 32 -33 -34 c-41 -42 -76 -46 -90 -10 l-9 25 -37 -25 c-20 -14 -42 -25
-49 -25 -15 0 -32 19 -36 43 -4 16 -8 15 -43 -9 -51 -35 -119 -43 -146 -19
-11 10 -20 25 -20 34 -1 14 -2 14 -13 1 -21 -27 -61 -50 -86 -50 -27 0 -61 26
-61 47 0 23 -46 14 -98 -17 -63 -40 -102 -43 -118 -11 -22 43 9 71 81 71 25 0
50 14 105 56 81 64 115 63 50 -1 -40 -39 -49 -55 -31 -55 6 0 27 25 48 55 41
59 53 68 74 54 12 -7 9 -17 -13 -58 -33 -58 -37 -97 -10 -86 9 4 31 13 47 19
17 6 43 21 59 33 36 29 105 48 119 34 19 -19 -1 -41 -37 -41 -40 0 -53 -14
-35 -36 16 -19 53 -11 96 22 17 13 36 24 42 24 6 0 15 10 22 23 19 36 82 97
101 97 10 0 18 -3 18 -7z m267 -10 c8 -20 -31 -55 -52 -46 -21 7 -19 40 3 52
25 15 42 13 49 -6z m2589 2 c8 -20 -13 -45 -38 -45 -27 0 -35 30 -13 46 25 18
44 18 51 -1z m348 6 c4 -5 -4 -22 -17 -38 -25 -29 -47 -67 -47 -78 0 -4 12 0
26 10 32 21 52 14 65 -25 12 -32 14 -31 67 6 39 29 27 -13 -17 -57 -47 -48
-78 -51 -94 -10 l-11 30 -34 -30 c-44 -39 -76 -36 -80 8 l-3 32 -45 -35 c-68
-51 -134 -45 -134 14 l0 24 -34 -30 c-62 -54 -117 -55 -140 -1 -11 26 -14 28
-26 15 -7 -9 -27 -16 -44 -16 -17 0 -44 -9 -61 -20 -39 -26 -75 -26 -82 0 -3
11 -7 20 -10 20 -3 0 -16 -9 -30 -20 -78 -61 -127 35 -53 103 48 43 87 30 55
-19 -30 -46 -9 -50 31 -6 57 61 92 57 59 -7 -8 -16 -12 -31 -8 -34 8 -9 43 12
43 25 0 19 41 57 56 51 8 -3 14 -16 14 -29 l0 -24 33 18 c17 9 44 26 59 36 51
33 76 2 38 -47 -27 -34 -9 -44 33 -18 17 11 43 26 57 33 36 18 42 32 19 40
-28 11 -19 32 16 36 15 2 36 13 45 24 19 24 56 18 46 -7 -4 -11 2 -15 28 -15
18 0 36 -3 39 -7 14 -14 -17 -33 -54 -33 -42 0 -63 -23 -57 -63 4 -28 31 -24
71 9 16 13 33 22 37 19 5 -3 16 7 24 22 35 68 104 121 120 94z m1550 -17 c24
-9 19 -36 -14 -83 -27 -37 -68 -65 -79 -55 -6 5 39 107 57 127 17 20 15 19 36
11z m-1174 -34 c0 -6 -7 -22 -16 -36 l-17 -25 42 17 c51 20 89 12 97 -21 3
-14 1 -31 -5 -38 -19 -24 -111 -68 -134 -65 -41 6 -30 32 25 60 29 15 46 27
38 27 -8 1 -35 -9 -59 -22 -35 -19 -47 -33 -65 -78 -16 -40 -26 -54 -41 -54
-17 0 -20 6 -19 40 0 30 12 59 47 112 44 69 68 92 95 93 6 0 12 -5 12 -10z
m1130 -135 c0 -16 -30 -35 -54 -35 -19 0 -22 36 -3 43 26 11 57 7 57 -8z"/>
<path d="M2654 3596 c-95 -18 -135 -32 -224 -76 -179 -89 -313 -234 -386 -416
-162 -401 11 -846 401 -1034 126 -61 190 -74 345 -74 155 0 219 13 345 74 209
100 365 283 431 505 34 116 39 289 11 405 -23 94 -91 237 -151 315 -101 130
-274 245 -433 286 -102 26 -248 32 -339 15z m348 -161 c233 -80 402 -273 448
-513 8 -37 11 -103 8 -165 -18 -353 -308 -627 -667 -628 -287 -1 -532 171
-633 443 -36 99 -49 247 -28 350 48 248 218 438 460 516 92 30 103 31 225 27
87 -3 126 -9 187 -30z"/>
<path d="M2770 3171 c0 -36 -3 -40 -33 -50 -18 -6 -48 -27 -67 -46 -28 -28
-34 -44 -38 -90 -8 -98 18 -132 156 -203 45 -24 88 -53 97 -65 45 -64 -8 -157
-89 -157 -53 0 -90 26 -108 76 -12 35 -13 36 -58 29 -25 -4 -47 -9 -49 -11 -2
-2 4 -24 13 -49 25 -65 73 -112 129 -127 47 -12 47 -12 47 -55 0 -42 0 -43 35
-43 35 0 35 0 35 44 0 42 2 45 35 56 44 14 102 82 116 134 27 100 -23 183
-148 245 -88 44 -123 77 -123 113 0 72 95 96 154 38 l30 -29 38 21 c21 12 38
25 38 30 0 18 -80 86 -109 93 -28 6 -31 10 -31 46 0 38 -1 39 -35 39 -34 0
-35 -1 -35 -39z"/>
<path d="M3008 1153 c-51 -8 -49 -83 2 -83 53 0 80 19 80 57 0 35 -7 37 -82
26z"/>
<path d="M2570 1261 c-5 -11 -10 -51 -10 -90 0 -82 13 -101 69 -101 54 0 66
19 66 105 0 88 -11 105 -71 105 -33 0 -46 -5 -54 -19z"/>
<path d="M3640 1270 c-11 -11 -20 -29 -20 -40 0 -18 7 -20 60 -20 l60 0 0 30
c0 24 -6 33 -26 40 -37 14 -52 12 -74 -10z"/>
<path d="M2765 657 c-28 -24 -28 -26 -9 -27 24 0 48 23 42 41 -2 7 -15 2 -33
-14z"/>
<path d="M1709 671 c-19 -16 -20 -20 -8 -21 17 0 45 27 37 35 -3 3 -16 -3 -29
-14z"/>
<path d="M2140 665 c-16 -19 0 -19 26 0 16 12 16 14 3 15 -9 0 -22 -7 -29 -15z"/>
</g>
</svg>
